<?xml version="1.0" encoding="UTF-8"?>
<svg id="Camada_2" data-name="Camada 2" xmlns="http://www.w3.org/2000/svg" viewBox="0 0 192.64 192.64">
  <defs>
    <style>
      .cls-1 {
        fill: #fffdf9;
      }

      .cls-2 {
        fill: #4888f4;
      }
    </style>
  </defs>
  <g id="Camada_1-2" data-name="Camada 1">
    <g>
      <rect class="cls-2" width="192.64" height="192.64" rx="30" ry="30"/>
      <g>
        <g>
          <path class="cls-1" d="M137.76,49.26h-12.77c-.48,0-.86.39-.87.86-.46,22.53-18.86,40.65-41.5,40.65-4.41,0-8.65-.69-12.64-1.96-.3-.1-.61.13-.61.44v13.76c0,.41.28.76.68.85,4.04.93,8.25,1.42,12.58,1.42,30.65,0,55.55-24.61,56.02-55.15,0-.49-.39-.88-.87-.88Z"/>
          <path class="cls-1" d="M70.19,74.25c3.96,1.95,8.38,3.05,12.97,3.05,15.49,0,28.05-12.56,28.05-28.05s-12.56-28.05-28.05-28.05-29.15,12.56-29.15,28.05v38.77c0,.32.26.58.58.58h14.3c.26,0,.47-.21.47-.47v-13.36c0-.43.45-.71.84-.52ZM82.61,36c7.32,0,13.26,5.93,13.26,13.26s-5.93,13.26-13.26,13.26-13.25-5.93-13.25-13.26,5.93-13.26,13.25-13.26Z"/>
        </g>
        <g>
          <g>
            <path class="cls-1" d="M89.42,152.25c-.35-.22-.75-.33-1.21-.33-.38,0-.7.08-.95.23-.26.15-.46.34-.62.57v-2.77h-1.31v6.97h1.16l.15-.63c.1.14.23.27.38.38.15.11.33.2.52.27.2.06.42.1.67.1.45,0,.85-.11,1.2-.33.35-.22.62-.52.83-.91.2-.39.31-.82.31-1.31s-.1-.94-.31-1.32c-.2-.38-.48-.69-.83-.91ZM89.05,155.22c-.11.21-.26.37-.46.49-.2.12-.42.18-.68.18s-.48-.06-.67-.17c-.2-.12-.35-.28-.46-.5-.11-.22-.17-.46-.17-.74s.06-.52.17-.74c.11-.21.27-.38.46-.5.2-.12.42-.18.67-.18s.49.06.68.18c.2.12.35.29.46.5.11.22.16.46.16.74s-.06.52-.16.73Z"/>
            <rect class="cls-1" x="92.68" y="152.04" width="1.31" height="4.88"/>
            <path class="cls-1" d="M93.33,149.9c-.23,0-.42.07-.58.21-.15.14-.23.31-.23.53s.08.39.23.53c.15.14.34.21.58.21s.43-.07.59-.21c.15-.14.23-.31.23-.53s-.08-.39-.23-.53c-.15-.14-.35-.21-.59-.21Z"/>
            <path class="cls-1" d="M99.85,152.24c-.37-.22-.79-.32-1.26-.32s-.88.11-1.26.32c-.37.22-.67.52-.89.9-.22.38-.32.83-.32,1.34s.11.94.32,1.32c.22.38.51.68.88.9.37.22.79.32,1.25.32s.89-.11,1.27-.32c.37-.22.67-.52.89-.9.22-.38.32-.83.32-1.33s-.11-.95-.32-1.33c-.22-.38-.51-.68-.88-.9ZM99.57,155.27c-.1.21-.24.37-.41.47-.17.1-.37.15-.59.15-.21,0-.4-.05-.57-.15-.17-.1-.31-.26-.41-.47-.1-.21-.15-.48-.15-.79s.05-.58.15-.79c.1-.21.24-.37.41-.47.17-.11.36-.16.57-.16s.41.05.58.16c.17.11.31.26.41.47.1.21.15.47.15.79s-.05.58-.15.79Z"/>
            <path class="cls-1" d="M110.17,152.18c-.28-.17-.64-.26-1.07-.26-.34,0-.66.07-.95.22-.29.15-.53.36-.71.62-.1-.19-.22-.34-.37-.46-.15-.12-.32-.22-.52-.28-.19-.06-.41-.1-.66-.1-.33,0-.62.07-.88.21-.26.14-.46.32-.62.56l-.11-.65h-1.15v4.88h1.31v-2.6c0-.27.04-.5.13-.7.09-.19.21-.34.37-.45.16-.1.34-.15.54-.15.32,0,.56.1.72.31s.23.5.23.89v2.69h1.31v-2.6c0-.27.04-.5.13-.7.09-.19.21-.34.37-.45.16-.1.35-.15.55-.15.32,0,.55.1.7.31.15.21.23.5.23.89v2.69h1.3v-2.81c0-.47-.07-.87-.22-1.19s-.36-.57-.64-.74Z"/>
            <path class="cls-1" d="M116.84,152.24c-.36-.21-.78-.32-1.27-.32s-.93.11-1.31.33c-.38.22-.67.53-.88.92-.21.39-.31.84-.31,1.35s.1.93.31,1.31c.21.38.5.67.88.88.38.21.81.31,1.3.31.38,0,.73-.07,1.04-.21.31-.14.57-.34.78-.58.21-.25.36-.52.46-.82h-1.34c-.08.16-.2.29-.35.4-.16.1-.36.15-.6.15s-.45-.05-.63-.16c-.18-.11-.32-.26-.42-.46-.08-.16-.13-.35-.14-.56h3.6c.01-.08.02-.17.02-.25v-.22c0-.46-.1-.87-.3-1.23-.2-.36-.48-.65-.84-.86ZM114.39,154c.03-.15.07-.29.13-.41.11-.21.25-.36.44-.46.19-.1.39-.15.61-.15.3,0,.56.09.76.27.2.18.31.43.33.75h-2.27Z"/>
            <path class="cls-1" d="M121.76,150.71h-1.16l-.15,1.33h-.83v1.09h.83v2.07c0,.43.07.77.21,1.02.14.25.34.43.6.53.26.11.55.16.9.16h.88v-1.11h-.64c-.23,0-.4-.04-.49-.13-.1-.08-.15-.24-.15-.46v-2.09h1.29v-1.09h-1.29v-1.33Z"/>
            <path class="cls-1" d="M126.85,152.39c-.18.15-.32.33-.44.54l-.13-.9h-1.16v4.88h1.31v-2.26c0-.26.03-.48.1-.66.06-.17.16-.31.28-.41.12-.1.27-.17.43-.22.16-.05.34-.07.54-.07h.45v-1.39c-.28,0-.53.04-.76.13-.23.08-.43.2-.61.35Z"/>
            <path class="cls-1" d="M130.74,149.9c-.23,0-.42.07-.58.21-.15.14-.23.31-.23.53s.08.39.23.53c.15.14.34.21.58.21s.43-.07.59-.21c.15-.14.23-.31.23-.53s-.08-.39-.23-.53c-.15-.14-.35-.21-.59-.21Z"/>
            <rect class="cls-1" x="130.08" y="152.04" width="1.31" height="4.88"/>
            <path class="cls-1" d="M135.42,153.21c.18-.11.38-.17.61-.17.25,0,.47.06.65.19.18.13.31.31.36.53h1.39c-.12-.57-.39-1.03-.81-1.36-.43-.33-.95-.49-1.58-.49-.49,0-.93.11-1.31.33-.38.22-.68.53-.89.91-.21.38-.32.83-.32,1.33s.11.93.32,1.31c.21.38.51.68.89.9.38.22.82.33,1.31.33.62,0,1.14-.17,1.57-.5.43-.33.7-.78.82-1.34h-1.39c-.04.15-.11.29-.2.39-.1.11-.21.19-.35.25-.14.06-.29.09-.46.09s-.32-.03-.47-.1c-.15-.06-.27-.16-.37-.29-.1-.13-.18-.28-.24-.46-.06-.18-.09-.38-.09-.61,0-.3.05-.55.15-.77.1-.22.24-.38.42-.49Z"/>
            <path class="cls-1" d="M145.3,151.6c0-.2.04-.34.13-.42.09-.08.23-.12.44-.12h.41v-1.11h-.6c-.34,0-.64.05-.9.16-.26.11-.45.28-.59.52-.14.24-.2.56-.2.97v.44h-.67v1.09h.67v3.79h1.31v-3.79h1.06v-1.09h-1.06v-.44Z"/>
            <path class="cls-1" d="M151.72,154.64c0,.28-.05.51-.15.7-.1.19-.23.34-.4.44-.17.1-.36.15-.58.15-.34,0-.6-.1-.76-.3-.16-.2-.25-.5-.25-.89v-2.7h-1.31v2.84c0,.47.07.87.22,1.19.15.32.36.56.64.73.28.16.62.25,1.01.25s.71-.08.99-.25c.28-.16.49-.39.63-.66l.11.79h1.14v-4.88h-1.3v2.61Z"/>
            <path class="cls-1" d="M157.06,150.71h-1.16l-.15,1.33h-.83v1.09h.83v2.07c0,.43.07.77.21,1.02.14.25.34.43.6.53.26.11.55.16.9.16h.88v-1.11h-.64c-.23,0-.4-.04-.49-.13-.1-.08-.15-.24-.15-.46v-2.09h1.29v-1.09h-1.29v-1.33Z"/>
            <path class="cls-1" d="M163.81,154.64c0,.28-.05.51-.15.7-.1.19-.23.34-.4.44-.17.1-.36.15-.58.15-.34,0-.6-.1-.76-.3-.16-.2-.25-.5-.25-.89v-2.7h-1.31v2.84c0,.47.07.87.22,1.19.15.32.36.56.64.73.28.16.62.25,1.01.25s.71-.08.99-.25c.28-.16.49-.39.63-.66l.11.79h1.14v-4.88h-1.3v2.61Z"/>
            <path class="cls-1" d="M169.09,152.39c-.18.15-.32.33-.44.54l-.13-.9h-1.16v4.88h1.31v-2.26c0-.26.03-.48.1-.66.06-.17.16-.31.28-.41.12-.1.27-.17.43-.22.16-.05.34-.07.54-.07h.45v-1.39c-.28,0-.53.04-.76.13-.23.08-.43.2-.61.35Z"/>
            <path class="cls-1" d="M176.67,153.1c-.2-.36-.48-.65-.84-.86-.36-.21-.78-.32-1.27-.32s-.93.11-1.31.33c-.38.22-.67.53-.88.92-.21.39-.31.84-.31,1.35s.1.93.31,1.31c.21.38.5.67.88.88.38.21.81.31,1.3.31.38,0,.73-.07,1.04-.21.31-.14.57-.34.78-.58.21-.25.36-.52.46-.82h-1.34c-.08.16-.2.29-.35.4-.16.1-.36.15-.6.15s-.45-.05-.63-.16c-.18-.11-.32-.26-.42-.46-.08-.16-.13-.35-.14-.56h3.6c.01-.08.02-.17.02-.25v-.22c0-.46-.1-.87-.3-1.23ZM173.38,154c.03-.15.07-.29.13-.41.11-.21.25-.36.44-.46.19-.1.39-.15.61-.15.3,0,.56.09.76.27.2.18.31.43.33.75h-2.27Z"/>
          </g>
          <g>
            <path class="cls-1" d="M101.28,126.82c-1.22-.73-2.76-1.1-4.57-1.1-1.46,0-2.83.32-4.07.96-1.17.6-2.14,1.43-2.9,2.46-.4-.71-.9-1.31-1.49-1.79-.65-.53-1.4-.93-2.23-1.21-.83-.28-1.78-.42-2.83-.42-1.41,0-2.68.3-3.77.9-.98.53-1.79,1.24-2.43,2.09l-.28-1.73c-.07-.44-.45-.77-.9-.77h-3.76c-.34,0-.61.27-.61.61v19.68c0,.34.27.61.61.61h4.6c.34,0,.61-.27.61-.61v-10.49c0-1.12.18-2.09.54-2.88.35-.79.86-1.4,1.5-1.81.64-.42,1.37-.63,2.18-.63,1.3,0,2.28.42,2.9,1.25.63.84.95,2.07.95,3.67v10.9c0,.34.27.61.61.61h4.6c.34,0,.61-.27.61-.61v-10.49c0-1.12.18-2.09.54-2.88.35-.79.86-1.4,1.52-1.81.65-.42,1.41-.63,2.25-.63,1.28,0,2.23.42,2.84,1.25.62.84.93,2.08.93,3.67v10.9c0,.34.27.61.61.61h4.56c.34,0,.61-.27.61-.61v-11.39c0-2-.31-3.71-.93-5.09-.62-1.38-1.56-2.46-2.78-3.19Z"/>
            <path class="cls-1" d="M120.69,126.83l-4.79,14.44-4.79-14.44c-.12-.37-.47-.63-.87-.63h-4.6c-.42,0-.72.42-.57.82l7.22,19.68c.09.24.32.4.57.4h6.06c.26,0,.48-.16.57-.4l7.18-19.68c.15-.4-.15-.82-.57-.82h-4.56c-.39,0-.74.25-.87.63Z"/>
            <path class="cls-1" d="M141.88,127.08c-1.54-.91-3.37-1.37-5.43-1.37s-4,.48-5.61,1.43c-1.61.95-2.87,2.28-3.75,3.94-.88,1.66-1.32,3.6-1.32,5.77s.45,4,1.35,5.61c.9,1.61,2.17,2.88,3.78,3.78,1.61.89,3.48,1.35,5.57,1.35,1.62,0,3.11-.31,4.43-.91,1.32-.6,2.45-1.44,3.36-2.49.91-1.05,1.57-2.23,1.95-3.53l.06-.2h-5.94l-.04.09c-.31.65-.8,1.2-1.44,1.61-.64.42-1.46.63-2.43.63s-1.84-.22-2.58-.65c-.73-.43-1.31-1.06-1.72-1.86-.32-.62-.51-1.33-.58-2.13h15.14l.02-.13c.06-.36.08-.72.08-1.06v-.92c0-1.95-.43-3.72-1.29-5.26-.85-1.54-2.07-2.78-3.61-3.69ZM132.16,133c.43-.84,1.04-1.47,1.79-1.88.76-.41,1.61-.62,2.5-.62,1.24,0,2.28.37,3.11,1.11.79.7,1.24,1.67,1.35,2.88h-9.25c.11-.56.28-1.06.5-1.49Z"/>
            <rect class="cls-1" x="148.77" y="126.2" width="5.82" height="20.89" rx=".61" ry=".61"/>
            <path class="cls-1" d="M151.73,117.28c-1.02,0-1.87.31-2.53.92-.67.61-1.01,1.4-1.01,2.34s.34,1.73,1.01,2.34c.67.61,1.52.92,2.53.92s1.91-.31,2.57-.92c.67-.61,1.01-1.4,1.01-2.34s-.34-1.72-1.01-2.34c-.67-.61-1.53-.92-2.57-.92Z"/>
            <path class="cls-1" d="M175.98,129.97c-.62-1.38-1.54-2.45-2.74-3.17-1.19-.72-2.67-1.08-4.41-1.08-1.63,0-3.05.36-4.23,1.08-1.04.64-1.88,1.46-2.5,2.44l-.27-2.23c-.06-.46-.45-.8-.91-.8h-3.73c-.34,0-.61.27-.61.61v19.68c0,.34.27.61.61.61h4.6c.34,0,.61-.27.61-.61v-10.53c0-1.11.2-2.07.6-2.85.39-.77.94-1.38,1.64-1.8.69-.42,1.5-.63,2.39-.63,1.39,0,2.43.42,3.09,1.25.67.84,1.01,2.07,1.01,3.66v10.9c0,.34.27.61.61.61h4.56c.34,0,.61-.27.61-.61v-11.43c0-2-.31-3.71-.93-5.09Z"/>
            <rect class="cls-1" x="63.2" y="119.44" width="6.23" height="27.67" rx=".61" ry=".61"/>
            <path class="cls-1" d="M60.59,126.21h-3.64c-.45,0-.83.32-.9.77l-.1.63c-1.7-1.19-3.76-1.9-5.98-1.9-5.87,0-10.63,4.9-10.63,10.94s4.76,10.94,10.63,10.94c2.03,0,3.92-.58,5.53-1.6v.5c0,.34.27.61.61.61h4.48c.34,0,.61-.27.61-.61v-19.68c0-.34-.27-.61-.61-.61ZM50.04,141.77c-2.95,0-5.01-2.29-5.01-5.12s2.06-5.12,5.01-5.12,5.01,2.3,5.01,5.12-2.06,5.12-5.01,5.12Z"/>
            <path class="cls-1" d="M21.96,146.31c1.54.76,3.26,1.19,5.04,1.19,6.02,0,10.9-4.88,10.9-10.9s-4.88-10.9-10.9-10.9-11.33,4.88-11.33,10.9v15.06c0,.13.1.23.23.23h5.56c.1,0,.18-.08.18-.18v-5.19c0-.17.17-.28.32-.2ZM26.78,131.44c2.84,0,5.15,2.31,5.15,5.15s-2.31,5.15-5.15,5.15-5.15-2.31-5.15-5.15,2.31-5.15,5.15-5.15Z"/>
          </g>
        </g>
      </g>
    </g>
  </g>
</svg>