<?xml version="1.0" encoding="UTF-8"?>
<svg id="Camada_2" data-name="Camada 2" xmlns="http://www.w3.org/2000/svg" viewBox="0 0 125.86 125.05">
  <defs>
    <style>
      .cls-1 {
        fill: #4888f4;
      }
    </style>
  </defs>
  <g id="Camada_1-2" data-name="Camada 1">
    <g>
      <path class="cls-1" d="M124.56,41.72h-19c-.71,0-1.28.57-1.3,1.29-.68,33.51-28.06,60.45-61.73,60.45-6.56,0-12.87-1.02-18.8-2.92-.45-.14-.91.19-.91.66v20.47c0,.6.42,1.13,1,1.27,6.01,1.38,12.27,2.11,18.71,2.11,45.59,0,82.62-36.6,83.32-82.02.01-.72-.58-1.31-1.3-1.31Z"/>
      <path class="cls-1" d="M24.07,78.9c5.89,2.9,12.47,4.54,19.29,4.54,23.04,0,41.72-18.68,41.72-41.72S66.4,0,43.36,0,0,18.68,0,41.72v57.66c0,.48.39.87.87.87h21.27c.38,0,.69-.31.69-.69v-19.87c0-.64.67-1.06,1.24-.78ZM42.54,22.01c10.89,0,19.71,8.83,19.71,19.71s-8.83,19.71-19.71,19.71-19.71-8.83-19.71-19.71,8.83-19.71,19.71-19.71Z"/>
    </g>
  </g>
</svg>